<?xml version="1.0" encoding="iso-8859-1"?>
<!-- Uploaded to: SVG Repo, www.svgrepo.com, Generator: SVG Repo Mixer Tools -->
<svg height="800px" width="800px" version="1.1" id="Layer_1" xmlns="http://www.w3.org/2000/svg" xmlns:xlink="http://www.w3.org/1999/xlink" 
	 viewBox="0 0 392.499 392.499" xml:space="preserve">
<path style="fill:#194F82;" d="M359.773,0H32.791C14.755,0,0.08,14.61,0.08,32.582v241.455c0,18.036,14.675,32.582,32.711,32.582
	h117.98c2.133,2.78,4.59,5.301,7.176,7.758v66.974c0.129,9.503,10.667,14.869,18.23,8.145l20.105-18.166l20.04,18.166
	c7.564,6.659,18.554,0.517,18.23-8.145V314.44c2.65-2.392,5.107-4.913,7.176-7.758h117.98c18.036,0,32.711-14.61,32.711-32.582
	V32.582C392.484,14.61,377.809,0,359.773,0z M212.767,356.913l-9.115-8.275c-4.202-3.814-10.408-3.814-14.61,0l-9.18,8.275v-30.061
	c5.236,1.616,10.731,2.521,16.485,2.521c5.754,0,11.313-0.905,16.485-2.521v30.061H212.767z M196.282,307.523
	c-19.459,0-35.232-15.709-35.232-35.103c0-19.329,15.838-35.103,35.232-35.103s35.232,15.709,35.232,35.103
	C231.514,291.879,215.676,307.523,196.282,307.523z M370.698,274.101c0,5.947-4.848,10.796-10.925,10.796h-107.83
	c0.905-4.008,1.422-8.145,1.422-12.347c0-31.354-25.6-56.889-57.018-56.889s-57.018,25.471-57.018,56.889
	c0,4.267,0.517,8.404,1.422,12.347H32.791c-6.012,0-10.925-4.849-10.925-10.796V32.582c0-5.947,4.848-10.796,10.925-10.796h326.917
	c6.012,0,10.925,4.848,10.925,10.796v241.455h0.065V274.101z"/>
<path style="fill:#FFFFFF;" d="M359.773,21.786H32.791c-6.012,0-10.925,4.848-10.925,10.796v241.455
	c0,5.947,4.848,10.796,10.925,10.796h107.895c-0.905-4.008-1.422-8.145-1.422-12.347c0-31.354,25.6-56.889,57.018-56.889
	s57.018,25.471,57.018,56.889c0,4.267-0.517,8.404-1.422,12.347h107.895c6.012,0,10.925-4.849,10.925-10.796V32.582
	C370.698,26.634,365.72,21.786,359.773,21.786z"/>
<path style="fill:#FFC10D;" d="M274.569,263.111c-4.719-38.917-38.012-69.236-78.287-69.236s-73.632,30.319-78.287,69.236H43.652
	V43.572h305.131v219.539H274.569L274.569,263.111z"/>
<g>
	<path style="fill:#194F82;" d="M319.239,149.592H74.1c-6.012,0-10.925-4.848-10.925-10.925c0-6.077,4.848-10.925,10.925-10.925
		h245.139c6.012,0,10.925,4.848,10.925,10.925C330.1,144.679,325.251,149.592,319.239,149.592z"/>
	<path style="fill:#194F82;" d="M289.502,189.22H103.837c-6.012,0-10.925-4.848-10.925-10.925c0-6.012,4.848-10.925,10.925-10.925
		h185.665c6.012,0,10.925,4.848,10.925,10.925C300.363,184.372,295.514,189.22,289.502,189.22z"/>
	<path style="fill:#194F82;" d="M109.203,247.402H74.1c-6.012,0-10.925-4.848-10.925-10.925c0-6.012,4.848-10.925,10.925-10.925
		h35.103c6.012,0,10.925,4.848,10.925,10.925C120.064,242.554,115.215,247.402,109.203,247.402z"/>
	<path style="fill:#194F82;" d="M326.997,247.402h-34.974c-6.012,0-10.925-4.848-10.925-10.925c0-6.012,4.848-10.925,10.925-10.925
		h34.974c6.012,0,10.925,4.848,10.925,10.925C337.922,242.554,333.009,247.402,326.997,247.402z"/>
</g>
<g>
	<path style="fill:#56ACE0;" d="M196.282,237.446c-19.459,0-35.232,15.709-35.232,35.103c0,19.329,15.838,35.103,35.232,35.103
		s35.232-15.709,35.232-35.103C231.514,253.156,215.676,237.446,196.282,237.446z"/>
	<path style="fill:#56ACE0;" d="M179.732,326.853v30.061l9.18-8.275c4.202-3.814,10.408-3.814,14.61,0l9.115,8.275v-30.061
		c-5.236,1.616-10.731,2.521-16.485,2.521C190.464,329.309,184.969,328.404,179.732,326.853z"/>
</g>
<path style="fill:#194F82;" d="M272.888,103.822L252.33,84.945l-20.428,18.941c-4.202,3.879-10.602,3.879-14.869,0L196.54,84.945
	l-20.428,18.941c-4.202,3.879-10.602,3.879-14.804,0L140.88,84.945l-20.299,18.877c-4.396,4.073-11.313,3.879-15.386-0.646
	c-4.073-4.396-3.879-11.313,0.646-15.386l27.733-25.729c4.202-3.879,10.602-3.879,14.804,0l20.558,18.941l20.428-18.941
	c4.202-3.879,10.602-3.879,14.804,0l20.558,18.941l20.428-18.941c4.202-3.879,10.602-3.879,14.869,0l27.927,25.729
	c4.396,4.073,4.784,11.055,0.646,15.386C284.395,107.248,277.09,108.347,272.888,103.822z"/>
</svg>